<svg class="HeaderSection-platformIcon HeaderSection-platformIcon--xbl" viewBox="0 0 159 32" preserveAspectRatio="xMinYMin" role="img">
    <title id="xboxSvgTitle">XBox</title>
    <path d="M101.725,25.848l-6.069-8.321-6.063,8.322H87.1l7.3-10.054L87.728,6.654h2.5l5.43,7.454,5.43-7.454h2.5l-6.659,9.137,7.3,10.056h-2.5Zm-47.3,0L47.125,15.792l6.664-9.137h-2.5L45.859,14.11,40.433,6.654H37.942L44.6,15.792,37.3,25.844h2.5l6.063-8.318,6.068,8.318h2.5Zm13.887-9.326a5.32,5.32,0,0,0-1.246-.8,4.354,4.354,0,0,0,2.285-3.844c0-1.228-.448-5.221-6.176-5.221H55.466v8.274H52.9c-0.333.439-1.091,1.494-1.379,1.926h3.948v8.991l7.716,0c4.18,0,6.776-2.143,6.776-5.6a4.758,4.758,0,0,0-1.64-3.724M57.6,8.656h5.583c1.51,0,4.041.38,4.041,3.05,0,2.018-1.474,3.221-4.041,3.221H57.6V8.656h0ZM63.18,23.844H57.6V16.858H63.18c2.116,0,4.649.59,4.649,3.342,0,3.169-2.912,3.643-4.649,3.643M79.993,6.212c-5.337,0-9.067,4.123-9.067,10.027s3.73,10.032,9.067,10.032,9.052-4.119,9.052-10.032S85.325,6.212,79.993,6.212m0,18.029c-4.066,0-6.915-3.292-6.915-8s2.849-8,6.915-8,6.892,3.29,6.892,8-2.832,8-6.892,8M4.725,4.6L4.71,4.614v0A16.115,16.115,0,0,0,3.236,25.689a0.07,0.07,0,0,0,.085.027,0.064,0.064,0,0,0,.018-0.082C2.132,21.863,8.3,12.722,11.492,8.89a0.085,0.085,0,0,0,.023-0.047,0.073,0.073,0,0,0-.03-0.052C6.122,3.4,4.69,4.631,4.71,4.614M26.948,4.6l0.015,0.013v0a16.117,16.117,0,0,1,1.472,21.074,0.069,0.069,0,0,1-.085.027,0.068,0.068,0,0,1-.018-0.082c1.207-3.771-4.959-12.919-8.146-16.752a0.075,0.075,0,0,1-.023-0.045,0.069,0.069,0,0,1,.03-0.054c5.365-5.393,6.787-4.151,6.769-4.168M15.837,0a15.5,15.5,0,0,1,8.249,2.342,0.059,0.059,0,0,1-.05.106c-3.066-.669-7.726,2.007-8.166,2.274a0.05,0.05,0,0,1-.068,0c-1.169-.678-5.477-2.959-8.189-2.257a0.063,0.063,0,0,1-.077-0.029,0.064,0.064,0,0,1,.027-0.079A15.48,15.48,0,0,1,15.837,0m0,12.831a0.089,0.089,0,0,1,.05.025C20.626,16.5,28.737,25.5,26.26,28.041l0,0,0,0h0a15.708,15.708,0,0,1-20.849,0l0,0,0,0C2.938,25.5,11.048,16.5,15.782,12.857a0.1,0.1,0,0,1,.055-0.025M141.09,6.654V22.4L129.6,6.643l-1.883,0V25.816h2.114v-15.4l11.25,15.413,2.12,0V6.654H141.09Zm-24.347-.446c-5.336,0-9.068,4.125-9.068,10.027s3.732,10.039,9.068,10.039,9.052-4.126,9.052-10.039-3.72-10.027-9.052-10.027m0,18.032c-4.066,0-6.915-3.292-6.915-8.005s2.849-8,6.915-8,6.892,3.292,6.892,8-2.832,8.005-6.892,8.005m30.964-.288v-7.1h10.452V14.981H147.707V8.517h11.161V6.641H145.581v19.19H159V23.953H147.707Z"></path>
</svg>